# xmcd CD database file
#
# Track frame offsets:
#	150
#	16230
#	30870
#	51742
#	65384
#	79188
#	92407
#	104967
#
# Disc length: 1561 seconds
#
# Revision: 0
# Processed by: cddbd v1.5.2PL0 Copyright (c) Steve Scherf et al.
# Submitted via: CDex 1.51
#
DISCID=61061708
DTITLE=Ken Atkins and the Honky Tonk Kind - This Train
DYEAR=2016
DGENRE=Country
TTITLE0=Tonight
TTITLE1=I'll Be Gone
TTITLE2=Barstool In Vegas
TTITLE3=This Train
TTITLE4=Mr Used To Be
TTITLE5=Hole In My Heart
TTITLE6=Wine Me Up
TTITLE7=Ken Atkins and the Honky Tonk Kind - If I Turn Back Now
EXTD=YEAR: 2016
EXTT0=
EXTT1=
EXTT2=
EXTT3=
EXTT4=
EXTT5=
EXTT6=
EXTT7=
PLAYORDER=
